<svg width="3554" height="1393" xmlns="http://www.w3.org/2000/svg" xmlns:xlink="http://www.w3.org/1999/xlink" xml:space="preserve" overflow="hidden"><defs><clipPath id="clip0"><rect x="472" y="475" width="3554" height="1393"/></clipPath></defs><g clip-path="url(#clip0)" transform="translate(-472 -475)"><path d="M472 1121.17C472 1089.04 498.043 1063 530.168 1063L814.832 1063C846.958 1063 873 1089.04 873 1121.17L873 1353.83C873 1385.96 846.958 1412 814.832 1412L530.168 1412C498.043 1412 472 1385.96 472 1353.83Z" fill="#156082" fill-rule="evenodd"/><text fill="#FFFFFF" font-family="Times New Roman,Times New Roman_MSFontService,sans-serif" font-weight="400" font-size="46" transform="matrix(1 0 0 1 570.804 1199)">MIMIC IV</text><text fill="#FFFFFF" font-family="Times New Roman,Times New Roman_MSFontService,sans-serif" font-weight="400" font-size="46" transform="matrix(1 0 0 1 603.186 1254)">Dataset</text><text fill="#FFFFFF" font-family="Times New Roman,Times New Roman_MSFontService,sans-serif" font-weight="400" font-size="46" transform="matrix(1 0 0 1 536.154 1309)">(EHR Dataset)</text><path d="M1623 1404C1623 1371.97 1648.97 1346 1681 1346L1966 1346C1998.03 1346 2024 1371.97 2024 1404L2024 1636C2024 1668.03 1998.03 1694 1966 1694L1681 1694C1648.97 1694 1623 1668.03 1623 1636Z" fill="#156082" fill-rule="evenodd"/><text fill="#FFFFFF" font-family="Times New Roman,Times New Roman_MSFontService,sans-serif" font-weight="400" font-size="46" transform="matrix(1 0 0 1 1713.27 1481)">Time Series </text><text fill="#FFFFFF" font-family="Times New Roman,Times New Roman_MSFontService,sans-serif" font-weight="400" font-size="46" transform="matrix(1 0 0 1 1746.77 1536)">Encoder </text><text fill="#FFFFFF" font-family="Times New Roman,Times New Roman_MSFontService,sans-serif" font-weight="400" font-size="46" transform="matrix(1 0 0 1 1748.22 1591)">(MIRA)</text><path d="M873.5 1299.06 1252.16 1299.06 1252.16 1520.67 1248.72 1517.23 1601.03 1517.23 1601.03 1524.1 1245.28 1524.1 1245.28 1302.5 1248.72 1305.94 873.5 1305.94ZM1596.44 1506.92 1623.94 1520.67 1596.44 1534.42Z" fill="#156082"/><path d="M1128 922.001C1128 889.968 1153.97 864 1186 864L1471 864C1503.03 864 1529 889.968 1529 922.001L1529 1154C1529 1186.03 1503.03 1212 1471 1212L1186 1212C1153.97 1212 1128 1186.03 1128 1154Z" fill="#156082" fill-rule="evenodd"/><text fill="#FFFFFF" font-family="Times New Roman,Times New Roman_MSFontService,sans-serif" font-weight="400" font-size="46" transform="matrix(1 0 0 1 1243.19 1027)">Semantic </text><text fill="#FFFFFF" font-family="Times New Roman,Times New Roman_MSFontService,sans-serif" font-weight="400" font-size="46" transform="matrix(1 0 0 1 1251.78 1082)">Encoder</text><path d="M0-3.4375 131.16-3.4375 131.16 199.833 127.722 196.396 232.528 196.396 232.528 203.271 124.285 203.271 124.285 0 127.722 3.4375 0 3.4375ZM227.944 186.083 255.444 199.833 227.944 213.583Z" fill="#156082" transform="matrix(1 0 0 -1 873.5 1238.33)"/><path d="M1784 520.168C1784 495.222 1804.22 475 1829.17 475L2139.83 475C2164.78 475 2185 495.222 2185 520.168L2185 700.832C2185 725.778 2164.78 746 2139.83 746L1829.17 746C1804.22 746 1784 725.778 1784 700.832Z" fill="#156082" fill-rule="evenodd"/><text fill="#FFFFFF" font-family="Times New Roman,Times New Roman_MSFontService,sans-serif" font-weight="400" font-size="46" transform="matrix(1 0 0 1 1896.95 572)">PrimeKG</text><text fill="#FFFFFF" font-family="Times New Roman,Times New Roman_MSFontService,sans-serif" font-weight="400" font-size="46" transform="matrix(1 0 0 1 1871.16 627)">(Knowledge </text><text fill="#FFFFFF" font-family="Times New Roman,Times New Roman_MSFontService,sans-serif" font-weight="400" font-size="46" transform="matrix(1 0 0 1 1919.59 682)">Graph)</text><path d="M1784 947.168C1784 922.222 1804.22 902 1829.17 902L2139.83 902C2164.78 902 2185 922.222 2185 947.168L2185 1127.83C2185 1152.78 2164.78 1173 2139.83 1173L1829.17 1173C1804.22 1173 1784 1152.78 1784 1127.83Z" fill="#156082" fill-rule="evenodd"/><text fill="#FFFFFF" font-family="Times New Roman,Times New Roman_MSFontService,sans-serif" font-weight="400" font-size="46" transform="matrix(1 0 0 1 1870.88 1027)">Hierarchical </text><text fill="#FFFFFF" font-family="Times New Roman,Times New Roman_MSFontService,sans-serif" font-weight="400" font-size="46" transform="matrix(1 0 0 1 1878.9 1082)">GraphRAG</text><path d="M1529.5 1035.06 1762.03 1035.06 1762.03 1041.94 1529.5 1041.94ZM1757.44 1024.75 1784.94 1038.5 1757.44 1052.25Z" fill="#156082"/><path d="M1988.94 746.5 1988.94 879.417 1982.06 879.417 1982.06 746.5ZM1999.25 874.833 1985.5 902.333 1971.75 874.833Z" fill="#156082"/><path d="M2246 1464.5C2246 1449.31 2258.31 1437 2273.5 1437L2619.5 1437C2634.69 1437 2647 1449.31 2647 1464.5L2647 1574.5C2647 1589.69 2634.69 1602 2619.5 1602L2273.5 1602C2258.31 1602 2246 1589.69 2246 1574.5Z" fill="#156082" fill-rule="evenodd"/><text fill="#FFFFFF" font-family="Times New Roman,Times New Roman_MSFontService,sans-serif" font-weight="400" font-size="46" transform="matrix(1 0 0 1 2384.44 1536)">Router</text><path d="M2185.5 1035.06 2450.49 1035.06 2450.49 1415.25 2443.62 1415.25 2443.62 1038.5 2447.06 1041.94 2185.5 1041.94ZM2460.81 1410.67 2447.06 1438.17 2433.31 1410.67Z" fill="#156082"/><path d="M2024.5 1517.06 2224.03 1517.06 2224.03 1523.94 2024.5 1523.94ZM2219.44 1506.75 2246.94 1520.5 2219.44 1534.25Z" fill="#156082"/><path d="M2848 1219.5C2848 1204.31 2860.31 1192 2875.5 1192L3221.5 1192C3236.69 1192 3249 1204.31 3249 1219.5L3249 1329.5C3249 1344.69 3236.69 1357 3221.5 1357L2875.5 1357C2860.31 1357 2848 1344.69 2848 1329.5Z" fill="#156082" fill-rule="evenodd"/><text fill="#FFFFFF" font-family="Times New Roman,Times New Roman_MSFontService,sans-serif" font-weight="400" font-size="46" transform="matrix(1 0 0 1 2969.73 1291)">Expert 1</text><path d="M2848 1730.5C2848 1715.31 2860.31 1703 2875.5 1703L3221.5 1703C3236.69 1703 3249 1715.31 3249 1730.5L3249 1840.5C3249 1855.69 3236.69 1868 3221.5 1868L2875.5 1868C2860.31 1868 2848 1855.69 2848 1840.5Z" fill="#156082" fill-rule="evenodd"/><text fill="#FFFFFF" font-family="Times New Roman,Times New Roman_MSFontService,sans-serif" font-weight="400" font-size="46" transform="matrix(1 0 0 1 2964.58 1802)">Expert N</text><text fill="#156082" font-family="Aptos,Aptos_MSFontService,sans-serif" font-weight="400" font-size="83" transform="matrix(6.12323e-17 1 -1 6.12323e-17 3049.91 1387)">......</text><path d="M2647.5 1517.06 2751.16 1517.06 2751.16 1786.33 2747.72 1782.9 2825.03 1782.9 2825.03 1789.77 2744.28 1789.77 2744.28 1520.5 2747.72 1523.94 2647.5 1523.94ZM2820.44 1772.58 2847.94 1786.33 2820.44 1800.08Z" fill="#156082"/><path d="M0-3.4375 103.66-3.4375 103.66 245.667 100.222 242.229 177.528 242.229 177.528 249.104 96.7848 249.104 96.7848 0 100.222 3.4375 0 3.4375ZM172.945 231.917 200.445 245.667 172.945 259.417Z" fill="#156082" transform="matrix(1 0 0 -1 2647.5 1520.17)"/><path d="M2748.5 1517.06 2903.45 1517.06 2903.45 1523.94 2748.5 1523.94ZM2898.87 1506.75 2926.37 1520.5 2898.87 1534.25Z" fill="#156082"/><path d="M0.0218852-3.43743 1416.88 5.5833 1416.83 12.4582-0.0218852 3.43743ZM1412.37-4.75814 1439.78 9.16667 1412.19 22.7413Z" fill="#156082" transform="matrix(1 0 0 -1 2185.5 1038.67)"/><path d="M3233.5 1270.06 3409.56 1270.06 3409.56 1476.9 3406.12 1473.46 3555.83 1473.46 3555.83 1480.33 3402.68 1480.33 3402.68 1273.5 3406.12 1276.94 3233.5 1276.94ZM3551.24 1463.15 3578.74 1476.9 3551.24 1490.65Z" fill="#156082"/><path d="M0-3.4375 168.438-3.4375 168.438 193.417 165 189.98 307.083 189.98 307.083 196.855 161.562 196.855 161.562 0 165 3.4375 0 3.4375ZM302.5 179.667 330 193.417 302.5 207.167Z" fill="#156082" transform="matrix(1 0 0 -1 3249.5 1785.92)"/><path d="M3142.5 1539.06 3555.85 1539.06 3555.85 1545.94 3142.5 1545.94ZM3551.27 1528.75 3578.77 1542.5 3551.27 1556.25Z" fill="#156082"/><path d="M3625 1446C3625 1425.57 3641.57 1409 3662 1409L3989 1409C4009.43 1409 4026 1425.57 4026 1446L4026 1594C4026 1614.43 4009.43 1631 3989 1631L3662 1631C3641.57 1631 3625 1614.43 3625 1594Z" fill="#156082" fill-rule="evenodd"/><text fill="#FFFFFF" font-family="Times New Roman,Times New Roman_MSFontService,sans-serif" font-weight="400" font-size="46" transform="matrix(1 0 0 1 3747.64 1536)">Forecast</text><path d="M3625 934.167C3625 908.117 3646.12 887 3672.17 887L3978.83 887C4004.88 887 4026 908.117 4026 934.167L4026 1122.83C4026 1148.88 4004.88 1170 3978.83 1170L3672.17 1170C3646.12 1170 3625 1148.88 3625 1122.83Z" fill="#156082" fill-rule="evenodd"/><text fill="#FFFFFF" font-family="Times New Roman,Times New Roman_MSFontService,sans-serif" font-weight="400" font-size="46" transform="matrix(1 0 0 1 3685.76 990)">Explainable AI</text><text fill="#FFFFFF" font-family="Times New Roman,Times New Roman_MSFontService,sans-serif" font-weight="400" font-size="46" transform="matrix(1 0 0 1 3728.43 1045)">(Retrieved </text><text fill="#FFFFFF" font-family="Times New Roman,Times New Roman_MSFontService,sans-serif" font-weight="400" font-size="46" transform="matrix(1 0 0 1 3729.88 1100)">Subgraph)</text></g></svg>